<svg xmlns="http://www.w3.org/2000/svg" viewBox="0 0 100 100" width="100" height="100">
  <defs>
    <linearGradient id="gradient" x1="0%" y1="0%" x2="100%" y2="100%">
      <stop offset="0%" stop-color="#3498DB" />
      <stop offset="100%" stop-color="#16A085" />
    </linearGradient>
  </defs>
  <circle cx="50" cy="50" r="45" fill="#FFFFFF" stroke="url(#gradient)" stroke-width="5" />
  <g fill="url(#gradient)">
    <!-- 中央の波形 -->
    <path d="M20,50 Q30,30 40,50 Q50,70 60,50 Q70,30 80,50" stroke="url(#gradient)" stroke-width="4" fill="none" />
    <!-- オーディオ波線 - 上部 -->
    <rect x="25" y="25" width="4" height="15" rx="2" />
    <rect x="35" y="20" width="4" height="20" rx="2" />
    <rect x="45" y="15" width="4" height="25" rx="2" />
    <rect x="55" y="20" width="4" height="20" rx="2" />
    <rect x="65" y="25" width="4" height="15" rx="2" />
    <!-- オーディオ波線 - 下部 -->
    <rect x="25" y="60" width="4" height="15" rx="2" />
    <rect x="35" y="60" width="4" height="20" rx="2" />
    <rect x="45" y="60" width="4" height="25" rx="2" />
    <rect x="55" y="60" width="4" height="20" rx="2" />
    <rect x="65" y="60" width="4" height="15" rx="2" />
  </g>
</svg>
